<svg width="70" height="70" viewBox="0 0 70 70" fill="none" xmlns="http://www.w3.org/2000/svg">
<path fill-rule="evenodd" clip-rule="evenodd" d="M0 34.7461C0 25.5309 3.66074 16.6931 10.1769 10.1769C16.6931 3.66074 25.5309 0 34.7461 0C43.9613 0 52.7991 3.66074 59.3153 10.1769C65.8315 16.6931 69.4922 25.5309 69.4922 34.7461C69.4922 43.9613 65.8315 52.7991 59.3153 59.3153C52.7991 65.8315 43.9613 69.4922 34.7461 69.4922C25.5309 69.4922 16.6931 65.8315 10.1769 59.3153C3.66074 52.7991 0 43.9613 0 34.7461H0ZM32.7632 49.6174L52.7677 24.6095L49.1541 21.7186L32.0961 43.0342L20.0138 32.9671L17.0487 36.5251L32.7632 49.6221V49.6174Z" fill="#4D9762"/>
</svg>
